<?xml version="1.0" standalone="no"?>
<!DOCTYPE svg PUBLIC "-//W3C//DTD SVG 20010904//EN"
 "http://www.w3.org/TR/2001/REC-SVG-20010904/DTD/svg10.dtd">
<svg version="1.0" xmlns="http://www.w3.org/2000/svg"
 width="1024.000000pt" height="1006.000000pt" viewBox="0 0 1024.000000 1006.000000"
 preserveAspectRatio="xMidYMid meet">

<g transform="translate(0.000000,1006.000000) scale(0.100000,-0.100000)"
fill="#000000" stroke="none">
<path d="M10235 5030 c0 -2769 1 -3902 2 -2518 2 1385 2 3651 0 5035 -1 1385
-2 252 -2 -2517z"/>
<path d="M5400 7265 c0 -250 3 -455 7 -455 4 0 103 37 220 81 118 45 217 79
220 75 7 -7 8 -19 12 -471 3 -203 6 -352 8 -330 6 63 16 75 23 30 7 -39 7 -39
9 14 1 44 4 52 17 47 9 -3 17 -6 20 -6 2 0 1 -7 -2 -15 -4 -9 0 -15 10 -15 11
0 16 9 16 31 0 19 4 28 11 24 6 -4 8 -9 6 -12 -3 -2 -1 -19 5 -36 5 -18 13
-45 18 -62 8 -28 12 27 13 178 0 23 5 37 13 37 7 0 49 -13 94 -30 45 -16 91
-30 102 -30 12 0 18 -3 15 -6 -4 -4 24 -17 61 -30 64 -23 109 -32 67 -14 -14
6 -16 9 -4 9 8 1 24 -6 35 -15 10 -8 13 -12 5 -8 -9 4 -12 3 -8 -3 8 -13 47
-24 47 -13 0 5 -6 11 -12 13 -10 4 -10 6 0 6 6 1 12 8 12 17 0 8 -4 12 -10 9
-5 -3 -10 -1 -10 4 0 6 7 11 15 11 11 0 15 -11 15 -40 0 -22 4 -40 8 -40 5 0
8 248 8 551 l-1 551 -75 29 c-41 16 -109 42 -150 58 -41 16 -169 65 -285 109
-479 184 -528 202 -541 202 -12 0 -14 -74 -14 -455z"/>
<path d="M4320 7645 c-63 -25 -137 -54 -165 -64 -50 -20 -85 -33 -405 -156
-96 -37 -217 -83 -267 -103 l-93 -35 0 -526 c0 -289 3 -536 6 -548 5 -18 10
-20 33 -13 15 4 42 15 59 24 18 9 32 14 32 10 0 -4 6 -2 13 4 6 5 46 21 87 35
41 15 103 38 137 52 35 14 67 25 72 25 5 0 12 -35 16 -77 4 -43 10 -91 15
-108 l8 -30 1 30 c2 53 17 61 26 13 l8 -43 7 40 c4 22 6 45 3 50 -2 6 2 3 9
-7 10 -12 18 -14 32 -6 23 13 26 9 36 -49 5 -29 9 104 10 350 3 428 2 413 11
421 3 3 52 -12 110 -35 210 -82 320 -121 325 -117 2 3 8 208 11 457 5 385 4
451 -8 450 -8 0 -66 -20 -129 -44z m-830 -1390 c-7 -9 -15 -13 -19 -10 -3 3 1
10 9 15 21 14 24 12 10 -5z"/>
<path d="M5720 6850 c-59 -25 -372 -145 -577 -222 l-163 -61 0 -205 c0 -113 2
-203 5 -200 3 2 6 24 7 47 1 42 18 71 18 32 0 -14 6 -21 20 -21 11 0 20 7 20
15 0 8 7 15 15 15 8 0 15 -7 15 -15 0 -9 9 -15 25 -15 16 0 25 6 25 15 0 13
41 15 310 15 258 0 310 -2 310 -14 0 -8 7 -16 15 -20 13 -5 15 35 15 324 0
182 -3 330 -7 329 -5 0 -28 -9 -53 -19z"/>
<path d="M4081 6501 c1 -185 5 -322 9 -306 l8 30 1 -27 c1 -35 14 -36 29 -3
13 27 42 34 42 10 0 -13 42 -15 315 -15 245 0 315 3 315 13 1 7 6 5 14 -6 14
-18 14 -17 21 2 13 42 23 19 30 -66 3 -49 8 -92 10 -98 2 -5 3 104 2 244 l-2
254 -75 29 c-69 26 -393 150 -622 238 l-98 37 1 -336z"/>
<path d="M6094 6254 c3 -9 7 -34 8 -57 1 -36 2 -37 5 -10 2 17 11 37 19 43 12
11 14 4 16 -41 1 -49 2 -50 5 -12 4 45 22 59 53 43 10 -6 27 -10 37 -9 10 0
-2 8 -27 18 -25 11 -46 15 -48 10 -2 -5 -13 0 -25 11 -25 24 -52 27 -43 4z"/>
<path d="M3730 6227 c-14 -6 -28 -15 -31 -20 -3 -4 -10 -7 -15 -6 -5 1 -22 -3
-37 -9 -16 -7 -32 -12 -37 -12 -4 0 -21 -7 -36 -16 l-29 -15 33 6 c18 4 45 13
61 21 28 14 61 10 61 -7 0 -5 5 -9 11 -9 6 0 8 9 4 20 -4 11 -2 20 4 20 6 0
14 1 18 3 4 1 11 -11 14 -28 6 -25 7 -22 8 18 0 26 0 47 -1 46 -2 0 -14 -6
-28 -12z"/>
<path d="M6268 6193 c7 -3 16 -2 19 1 4 3 -2 6 -13 5 -11 0 -14 -3 -6 -6z"/>
<path d="M6355 6160 c11 -5 27 -9 35 -9 9 0 8 4 -5 9 -11 5 -27 9 -35 9 -9 0
-8 -4 5 -9z"/>
<path d="M3630 6156 c0 -2 9 -6 20 -9 11 -3 18 -1 14 4 -5 9 -34 13 -34 5z"/>
<path d="M3494 6135 c-24 -18 -7 -19 26 0 16 9 19 14 9 15 -8 0 -24 -7 -35
-15z"/>
<path d="M3415 6103 c-26 -6 -44 -23 -24 -23 8 0 24 7 35 15 10 8 17 14 14 14
-3 -1 -14 -3 -25 -6z"/>
<path d="M7657 4353 c-3 -5 -8 -24 -12 -43 -4 -19 -15 -50 -23 -68 -12 -24
-13 -35 -4 -44 8 -8 19 -3 44 24 43 46 68 58 117 58 30 0 43 -5 51 -19 15 -30
13 -423 -3 -444 -6 -10 -26 -21 -42 -25 -64 -17 -25 -27 118 -30 121 -2 147 0
147 12 0 7 -12 17 -27 21 -53 13 -53 13 -53 231 0 111 4 214 10 228 9 24 15
26 64 26 59 0 75 -10 101 -61 18 -34 35 -38 35 -7 0 12 5 48 12 80 7 31 9 60
6 63 -3 3 -21 -3 -39 -14 -31 -19 -50 -21 -235 -21 -186 0 -203 2 -227 20 -28
22 -34 24 -40 13z"/>
<path d="M1830 4316 c0 -9 16 -23 39 -32 22 -8 42 -22 45 -29 5 -14 -19 -332
-30 -395 -8 -42 -20 -59 -51 -71 -51 -19 -21 -29 87 -29 111 0 138 10 83 31
-59 22 -63 33 -62 148 1 58 4 131 8 161 l7 55 18 -40 c10 -22 43 -94 73 -160
31 -66 64 -139 74 -162 10 -24 22 -43 27 -43 8 0 46 81 127 275 26 61 51 114
56 120 5 5 9 -57 9 -162 0 -177 -2 -187 -44 -194 -11 -2 -21 -10 -24 -16 -3
-10 30 -13 142 -13 118 0 146 3 146 14 0 8 -11 17 -25 20 -45 11 -52 38 -65
250 -12 197 -12 198 10 221 12 13 33 26 47 30 13 3 23 11 20 18 -5 15 -199 10
-209 -6 -3 -6 -9 -26 -13 -45 -3 -19 -35 -100 -70 -180 l-64 -147 -21 50 c-44
101 -82 192 -107 255 -14 36 -29 68 -32 71 -3 4 -50 10 -103 14 -86 6 -98 5
-98 -9z"/>
<path d="M3589 4317 c-96 -36 -158 -102 -186 -196 -40 -138 17 -273 142 -339
45 -24 61 -27 150 -27 92 0 104 2 154 30 103 57 156 157 149 281 -7 108 -58
184 -157 235 -55 28 -195 37 -252 16z m150 -42 c73 -37 114 -135 115 -270 0
-133 -44 -204 -131 -212 -102 -10 -174 88 -181 249 -6 115 9 167 59 213 44 39
89 46 138 20z"/>
<path d="M4827 4323 c-12 -12 -7 -22 13 -28 11 -4 34 -18 50 -32 30 -25 30
-25 30 -131 0 -59 -5 -152 -10 -207 -9 -94 -11 -102 -40 -126 -16 -14 -30 -29
-30 -32 0 -4 50 -7 111 -7 84 0 110 3 107 13 -3 6 -13 13 -24 15 -10 2 -29 11
-41 20 -19 16 -22 29 -28 185 -5 122 -4 167 4 167 7 0 37 -28 69 -62 31 -35
68 -74 82 -88 14 -14 70 -74 125 -134 157 -170 189 -175 178 -27 -3 47 -2 162
2 255 l7 168 39 16 c40 15 48 26 27 34 -21 8 -208 -4 -208 -12 0 -5 17 -17 38
-27 l37 -18 3 -157 c1 -87 -1 -158 -5 -158 -5 0 -48 46 -98 102 -223 252 -234
263 -278 270 -56 9 -152 10 -160 1z"/>
<path d="M6333 4318 c-7 -12 6 -28 22 -28 8 0 21 -11 30 -24 13 -19 15 -58 13
-237 l-3 -214 -32 -15 c-18 -8 -35 -21 -37 -27 -4 -10 42 -13 214 -13 250 0
236 -5 246 93 l5 52 -25 -30 c-63 -74 -64 -75 -141 -75 -50 0 -76 4 -84 14 -8
9 -11 47 -9 107 l3 94 58 3 c56 3 57 2 78 -32 12 -20 25 -34 29 -31 5 3 8 43
9 90 0 93 -11 108 -41 54 -17 -29 -20 -30 -75 -27 l-58 3 -3 91 c-3 104 2 114
69 119 63 4 97 -11 120 -56 28 -57 50 -52 42 9 -12 92 6 85 -222 86 -112 1
-205 -2 -208 -6z"/>
<path d="M4168 2940 c-15 -9 -15 -13 -2 -40 9 -16 14 -44 12 -62 -3 -32 -5
-33 -54 -38 -56 -6 -78 -19 -100 -61 -26 -51 -13 -108 34 -146 19 -16 88 -17
98 -2 5 8 9 8 14 -1 5 -7 20 -9 44 -5 35 7 51 25 21 25 -15 0 -20 83 -15 268
2 64 0 72 -17 72 -10 0 -26 -5 -35 -10z m-7 -176 c15 -19 21 -111 7 -136 -13
-27 -64 -23 -93 7 -51 50 -21 145 44 145 16 0 35 -7 42 -16z"/>
<path d="M7870 2939 c-23 -10 -24 -11 -7 -23 15 -12 17 -32 17 -160 0 -121 -3
-148 -15 -152 -28 -11 -4 -24 38 -20 55 5 55 5 35 17 -16 9 -18 29 -18 179 0
181 1 179 -50 159z"/>
<path d="M2400 2920 c0 -5 7 -10 15 -10 27 0 35 -38 35 -165 0 -124 0 -126
-25 -137 -42 -19 -28 -28 45 -28 72 0 87 8 48 25 -22 10 -23 14 -23 150 0 136
1 140 23 150 39 17 24 25 -48 25 -40 0 -70 -4 -70 -10z"/>
<path d="M5086 2893 c-45 -66 -28 -88 20 -27 31 39 36 55 17 61 -6 2 -23 -13
-37 -34z"/>
<path d="M5610 2922 c0 -4 9 -13 20 -20 19 -12 20 -21 18 -150 -3 -131 -4
-137 -25 -147 -40 -17 -25 -25 47 -24 68 1 90 11 50 24 -19 6 -20 15 -20 156
l0 149 35 0 c49 0 75 -29 75 -83 0 -51 -22 -87 -55 -87 -13 0 -27 -4 -30 -10
-4 -6 9 -10 30 -10 52 0 105 53 105 105 0 49 -15 74 -55 91 -36 15 -195 20
-195 6z"/>
<path d="M4307 2904 c-12 -12 -8 -42 6 -47 21 -8 39 8 35 29 -3 19 -29 30 -41
18z"/>
<path d="M4853 2894 c-3 -8 1 -22 9 -30 13 -14 17 -14 32 1 13 13 14 20 5 31
-15 19 -38 18 -46 -2z"/>
<path d="M6463 2894 c-3 -8 1 -22 9 -30 12 -12 17 -12 33 0 16 12 17 16 6 30
-17 20 -40 21 -48 0z"/>
<path d="M7547 2904 c-4 -4 -7 -16 -7 -26 0 -13 7 -18 26 -18 21 0 25 4 22 22
-3 23 -27 35 -41 22z"/>
<path d="M2881 2809 c-21 -17 -23 -23 -13 -40 7 -10 12 -48 12 -85 0 -36 5
-74 10 -85 11 -19 51 -26 84 -13 22 9 20 24 -3 24 -46 0 -51 9 -51 85 l0 74
38 3 c20 2 37 8 37 13 0 6 -17 11 -37 13 -25 2 -38 8 -38 18 0 19 -10 17 -39
-7z"/>
<path d="M6120 2804 c-19 -18 -22 -27 -12 -32 7 -5 13 -37 15 -84 2 -44 9 -83
16 -92 16 -19 72 -21 89 -4 19 19 14 25 -17 20 -39 -5 -53 22 -49 96 l3 57 38
3 c53 5 51 32 -3 32 -24 0 -39 4 -37 11 4 21 -18 18 -43 -7z"/>
<path d="M2606 2794 c-21 -12 -25 -19 -17 -27 14 -14 15 -154 1 -162 -22 -14
-8 -23 35 -23 45 1 58 11 30 22 -19 7 -22 138 -2 154 27 21 58 24 78 6 25 -22
28 -151 4 -160 -30 -12 -14 -21 33 -19 61 4 60 4 40 16 -15 8 -18 24 -18 82 0
90 -15 117 -66 117 -20 0 -44 -5 -55 -10 -15 -8 -19 -7 -19 5 0 19 -7 18 -44
-1z"/>
<path d="M3253 2798 c-24 -12 -30 -32 -13 -43 6 -3 10 -37 10 -75 0 -55 -4
-71 -17 -79 -22 -12 -21 -13 40 -16 46 -3 63 7 32 19 -11 4 -15 22 -15 75 0
75 12 94 52 83 20 -5 41 15 32 30 -7 11 -52 10 -59 -2 -9 -15 -25 -12 -25 5 0
17 -6 18 -37 3z"/>
<path d="M3427 2793 c-23 -12 -26 -17 -16 -29 15 -18 14 -143 -1 -158 -18 -18
-11 -23 35 -24 50 0 52 2 29 26 -13 12 -15 29 -11 80 5 68 9 76 43 86 38 11
54 -17 54 -94 0 -38 -4 -72 -10 -75 -22 -13 -8 -22 35 -22 44 0 59 12 30 23
-17 7 -21 97 -6 137 11 28 46 41 73 26 26 -14 27 -153 1 -168 -22 -12 -21 -13
40 -16 46 -2 62 7 32 19 -12 4 -15 23 -15 81 0 42 -5 85 -10 96 -13 24 -70 26
-104 4 -21 -14 -24 -14 -36 0 -14 17 -85 21 -95 5 -9 -15 -25 -12 -25 5 0 18
-6 18 -43 -2z"/>
<path d="M4306 2794 c-21 -12 -25 -19 -17 -27 14 -14 15 -167 1 -167 -5 0 -10
-4 -10 -8 0 -5 20 -9 45 -10 42 0 61 11 33 20 -8 3 -11 36 -9 106 1 56 -2 102
-6 102 -4 -1 -21 -8 -37 -16z"/>
<path d="M4857 2794 c-26 -14 -27 -16 -12 -37 21 -30 21 -145 0 -153 -29 -12
-14 -22 30 -22 47 1 66 12 40 22 -12 4 -15 26 -15 106 0 55 -3 100 -7 100 -5
-1 -20 -8 -36 -16z"/>
<path d="M5247 2791 c-24 -16 -26 -20 -12 -31 21 -18 22 -148 0 -156 -28 -11
-15 -21 30 -22 43 0 57 9 35 23 -5 3 -10 39 -10 80 0 73 0 73 31 84 55 19 69
2 69 -84 0 -40 -4 -77 -10 -80 -22 -14 -8 -23 35 -23 44 0 59 10 30 22 -12 4
-15 23 -15 84 0 64 -4 82 -18 95 -20 19 -87 23 -97 7 -9 -15 -25 -12 -25 5 0
19 -8 18 -43 -4z"/>
<path d="M6296 2794 c-21 -12 -25 -19 -17 -27 14 -14 15 -154 1 -162 -22 -14
-8 -21 38 -20 61 3 60 2 34 21 -18 13 -22 24 -22 72 0 70 9 85 51 86 24 1 35
6 37 19 3 13 -3 17 -27 17 -16 0 -33 -5 -36 -11 -5 -7 -11 -5 -18 5 -11 13
-15 13 -41 0z"/>
<path d="M6467 2794 c-27 -14 -28 -17 -13 -33 22 -24 23 -149 1 -157 -29 -11
-15 -21 30 -21 43 0 57 9 35 22 -6 3 -10 50 -10 106 0 54 -3 99 -7 99 -5 -1
-21 -8 -36 -16z"/>
<path d="M6596 2793 c-21 -11 -25 -17 -15 -24 8 -5 15 -34 17 -80 4 -59 1 -74
-12 -81 -28 -16 -17 -26 29 -26 25 0 45 4 45 9 0 5 -4 9 -10 9 -6 0 -10 33
-10 80 0 77 1 81 25 90 50 19 75 -13 75 -99 0 -31 -5 -53 -15 -61 -25 -20 -18
-27 30 -27 45 0 53 5 36 23 -9 8 -15 80 -12 132 1 28 43 47 72 32 16 -9 19
-22 19 -85 0 -40 -4 -77 -10 -80 -22 -14 -8 -23 35 -23 50 1 52 3 30 24 -11
11 -15 37 -15 93 0 46 -5 82 -12 89 -16 16 -67 15 -98 -3 -22 -12 -27 -11 -42
2 -17 15 -63 15 -100 -2 -13 -5 -18 -3 -18 9 0 19 -6 19 -44 -1z"/>
<path d="M7267 2793 c-26 -13 -26 -16 -12 -36 20 -29 20 -130 0 -151 -22 -21
-20 -23 30 -23 45 0 53 5 36 23 -5 5 -11 40 -13 79 -3 67 -2 70 24 82 18 10
34 10 52 3 25 -9 26 -13 26 -84 0 -41 -4 -78 -10 -81 -22 -13 -8 -22 35 -22
45 0 59 10 30 21 -12 4 -15 23 -15 84 0 64 -4 82 -18 95 -20 19 -87 23 -97 7
-9 -15 -25 -12 -25 5 0 18 -6 18 -43 -2z"/>
<path d="M7543 2796 c-25 -12 -29 -21 -13 -31 6 -3 10 -39 10 -80 0 -41 -4
-77 -10 -80 -22 -13 -8 -22 35 -22 50 0 52 2 29 25 -13 13 -15 33 -12 109 4
97 3 100 -39 79z"/>
<path d="M3049 2771 c-24 -24 -29 -38 -29 -76 0 -49 13 -82 39 -102 25 -19 86
-16 112 6 31 25 21 34 -18 19 -26 -10 -35 -9 -57 6 -29 18 -50 61 -42 83 4 9
25 13 66 13 69 0 83 14 56 55 -25 37 -87 35 -127 -4z m82 9 c36 -20 23 -40
-26 -40 -50 0 -57 11 -23 34 27 19 24 19 49 6z"/>
<path d="M3842 2777 c-49 -52 -49 -147 1 -182 30 -21 90 -19 118 4 28 22 20
38 -9 22 -12 -6 -28 -11 -37 -11 -26 0 -75 55 -75 84 0 25 2 26 65 26 74 0 88
13 61 55 -23 35 -93 36 -124 2z m79 3 c36 -20 23 -40 -26 -40 -50 0 -57 11
-23 34 27 19 24 19 49 6z"/>
<path d="M4470 2793 c-19 -7 -60 -44 -60 -55 0 -16 23 -8 46 17 30 33 54 24
54 -21 0 -30 -5 -36 -50 -59 -38 -19 -50 -31 -50 -48 0 -30 18 -47 50 -47 14
0 31 5 38 12 9 9 15 9 24 0 16 -16 53 -15 67 2 10 12 8 15 -11 18 -22 3 -23 8
-26 83 -2 43 -8 85 -14 92 -11 13 -41 16 -68 6z m38 -150 c-3 -30 -32 -43 -51
-24 -7 7 -5 16 8 31 26 29 47 26 43 -7z"/>
<path d="M4656 2774 c-73 -74 -39 -194 54 -194 39 0 92 32 77 46 -4 4 -13 2
-19 -4 -31 -31 -101 5 -111 57 -15 72 36 121 88 87 27 -18 45 -14 45 9 0 17
-22 25 -69 25 -28 0 -45 -7 -65 -26z"/>
<path d="M4995 2765 c-30 -30 -35 -42 -35 -81 0 -37 6 -51 29 -75 25 -24 37
-29 78 -29 72 1 113 43 113 118 0 62 -40 102 -104 102 -39 0 -51 -5 -81 -35z
m122 -12 c22 -33 24 -113 4 -136 -7 -10 -28 -17 -45 -17 -44 1 -70 39 -69 102
1 59 15 78 59 78 25 0 38 -7 51 -27z"/>
<path d="M5921 2770 c-36 -35 -38 -40 -12 -40 11 0 23 9 26 20 8 24 50 27 59
4 11 -30 -4 -60 -38 -72 -46 -17 -73 -48 -60 -69 19 -30 41 -38 72 -27 19 7
35 8 46 2 19 -11 66 -3 66 11 0 6 -10 11 -22 13 -22 3 -23 8 -23 83 0 44 -4
86 -8 93 -16 23 -72 14 -106 -18z m67 -127 c-3 -30 -32 -43 -52 -23 -8 9 -5
16 13 31 32 26 43 24 39 -8z"/>
<path d="M7014 2764 c-28 -29 -34 -43 -34 -80 0 -37 6 -51 29 -75 24 -24 38
-29 76 -29 40 0 52 5 81 34 29 29 34 41 34 79 0 36 -6 51 -29 76 -25 26 -36
31 -76 31 -42 0 -52 -5 -81 -36z m124 -12 c19 -30 21 -114 3 -136 -18 -22 -67
-20 -90 3 -42 42 -37 135 8 157 30 15 59 7 79 -24z"/>
<path d="M7681 2774 c-34 -28 -39 -44 -15 -44 9 0 18 9 21 19 6 23 37 33 52
18 6 -6 11 -24 11 -39 0 -23 -8 -32 -51 -53 -43 -22 -50 -30 -47 -52 4 -37 30
-50 70 -35 21 8 36 8 42 2 15 -15 52 -12 66 5 11 13 8 15 -14 15 -26 0 -26 0
-26 79 0 44 -3 86 -6 95 -10 26 -68 20 -103 -10z m67 -131 c-3 -30 -32 -43
-52 -23 -8 9 -5 16 13 31 32 26 43 24 39 -8z"/>
</g>
</svg>
